PathFileType	4	(x/y/z)	S02_P20_T24
DataRate	CameraRate	NumFrames	NumMarkers	Units	OrigDataRate	OrigDataStartFrame	OrigNumFrames
240	240	7	51	mm	240	309	353
Frame#	Time	Sternum			R.Acromium			L.Acromium			Top.Head			R.ASIS			L.ASIS			R.PSIS			L.PSIS			R.Great.Tro			L.Great.Tro			R.Iliac.Crest			L.Iliac.Crest			V.Sacral			R.Thigh.Upper.Post			R.Thigh.Lower.Ant			R.Thigh.Lower.Post			R.Thigh.Upper.Ant			R.Knee.Lat			R.Knee.Med			R.Shank.Upper.Post			R.Shank.Lower.Ant			R.Shank.Lower.Post			R.Shank.Upper.Ant			R.Ankle.Lat			R.Ankle.Med			R.Heel.Upper			R.Heel.Med			R.Heel.Lat			R.Toe.Lat			R.Toe.Med			R.Toe.Tip			L.Thigh.Upper.Post			L.Thigh.Lower.Ant			L.Thigh.Lower.Post			L.Thigh.Upper.Ant			L.Knee.Lat			L.Knee.Med			L.Shank.Upper.Post			L.Shank.Lower.Ant			L.Shank.Lower.Post			L.Shank.Upper.Ant			L.Ankle.Lat			L.Ankle.Med			L.Heel.Upper			L.Heel.Med			L.Heel.Lat			L.Toe.Lat			L.Toe.Med			L.Toe.Tip			Cervical.Spine			Back			
		X1	Y1	Z1	X2	Y2	Z2	X3	Y3	Z3	X4	Y4	Z4	X5	Y5	Z5	X6	Y6	Z6	X7	Y7	Z7	X8	Y8	Z8	X9	Y9	Z9	X10	Y10	Z10	X11	Y11	Z11	X12	Y12	Z12	X13	Y13	Z13	X14	Y14	Z14	X15	Y15	Z15	X16	Y16	Z16	X17	Y17	Z17	X18	Y18	Z18	X19	Y19	Z19	X20	Y20	Z20	X21	Y21	Z21	X22	Y22	Z22	X23	Y23	Z23	X24	Y24	Z24	X25	Y25	Z25	X26	Y26	Z26	X27	Y27	Z27	X28	Y28	Z28	X29	Y29	Z29	X30	Y30	Z30	X31	Y31	Z31	X32	Y32	Z32	X33	Y33	Z33	X34	Y34	Z34	X35	Y35	Z35	X36	Y36	Z36	X37	Y37	Z37	X38	Y38	Z38	X39	Y39	Z39	X40	Y40	Z40	X41	Y41	Z41	X42	Y42	Z42	X43	Y43	Z43	X44	Y44	Z44	X45	Y45	Z45	X46	Y46	Z46	X47	Y47	Z47	X48	Y48	Z48	X49	Y49	Z49	X50	Y50	Z50	X51	Y51	Z51	

309	1.2833	371.63	1108.1	334.71	255.75	1344.6	467.61	274.33	1340	173.74	332.44	1625.6	316.82	328.15	938.35	425.78	335.7	919.24	218.63	120.88	972.3	377.3	113.9	975.81	303.98	276.35	833.04	524.04	199.02	836.91	137.2	231.84	983.84	486.41	214.04	971.42	155.73	91.752	925.71	336.31	370.44	641.94	512.65	452.39	593.6	475.46	392.7	555.87	493.2	425.59	677.93	491.76	437.91	493.82	478.62	433.87	479.5	336.75	374.41	285.71	463.92	454.6	210.76	451.97	387.04	214.02	455.65	447.02	278.97	467.13	410.64	117.23	445.81	428.44	136.37	362.87	355.75	103.47	384.8	372.21	74.223	355.82	356.13	69.304	417.61	512.31	60.58	473.87	553.48	64.685	372.29	595.11	88.737	433.27	140.45	615.77	177.27	204.27	526.03	183.88	127.57	529.22	203.53	210.38	618.17	159.09	173.47	448.97	198.28	173.46	452.81	337.27	59.329	295.57	209.74	112.61	198.31	227.7	44.832	225.07	229.23	120.37	272.37	208.49	51.797	104.96	247.28	65.887	103.27	327.8	-10.668	72.427	281.96	-2.079	46.245	315.38	-6.0158	44.574	253.82	159.48	34.371	221.58	182.63	44.698	331.55	242.74	57.679	283.3	192.01	1402.7	315.15	116.47	1152.1	316.24
310	1.2875	377.09	1107.1	334.95	261.04	1343.6	467.73	280.05	1339	173.99	337.89	1624.7	317.17	333.85	937.4	425.86	341.03	918.08	218.68	126.39	971.21	377.8	119.25	974.7	304.51	282.53	832.17	524.23	203.86	836.37	137.31	237.54	982.92	486.62	219.14	970.3	156	97.237	924.57	336.88	376.35	640.89	512.38	457.85	592.46	474.39	398.41	554.76	492.92	431.17	676.84	490.68	443.65	492.88	477.87	438.5	478.18	335.78	384.42	283.48	463.49	466.48	210.37	451.51	398.75	212.03	455.16	457.3	278.44	466.66	424.72	115.5	445.29	441.9	135.02	362.36	369.98	100.35	384.38	387.11	71.506	355.41	371.26	66.193	417.18	527.75	61.124	473.13	568.64	66.3	371.5	609.84	91.303	432.43	144.18	615.76	177.47	207.41	525.6	184	130.74	529.29	203.76	214.11	617.71	159.23	176.01	448.66	198.35	175.99	452.5	337.35	60.837	295.92	209.9	113.55	198.34	227.73	45.948	225.57	229.31	121.79	272.34	208.54	52.08	105.31	247.37	66.219	103.52	327.86	-10.518	72.803	282.02	-1.9882	46.605	315.46	-5.9484	44.927	253.9	159.51	34.316	221.6	182.76	44.645	331.55	242.89	57.454	283.28	197.48	1401.8	315.21	121.91	1151.2	316.19
311	1.2917	382.57	1106	335.21	266.35	1342.6	467.87	285.77	1337.9	174.27	343.34	1623.7	317.54	339.58	936.39	425.95	346.38	916.86	218.72	131.92	970.07	378.31	124.63	973.55	305.03	288.71	831.2	524.41	208.72	835.81	137.44	243.27	981.94	486.86	224.27	969.14	156.27	102.74	923.4	337.46	382.3	639.78	512.16	463.33	591.25	473.32	404.13	553.6	492.69	436.78	675.69	489.6	449.38	491.86	477.15	443.11	476.79	334.82	394.18	281.32	463.03	477.99	209.99	451.01	410.13	210.14	454.62	467.29	277.9	466.18	438.37	113.89	444.71	454.92	133.77	361.79	383.79	97.409	383.92	401.54	68.979	354.95	385.94	63.273	416.69	542.68	61.701	472.27	583.24	67.951	370.59	624.03	93.841	431.47	148.03	615.68	177.65	210.69	525.13	184.12	134.06	529.31	203.98	217.96	617.2	159.36	178.72	448.3	198.43	178.66	452.18	337.45	62.469	296.28	210.05	114.55	198.35	227.76	47.147	226.07	229.39	123.3	272.29	208.59	52.377	105.68	247.45	66.562	103.81	327.91	-10.361	73.212	282.07	-1.8978	47.003	315.53	-5.8793	45.306	253.96	159.55	34.256	221.61	182.88	44.593	331.54	243.04	57.222	283.26	202.95	1400.8	315.29	127.35	1150.2	316.15
312	1.2958	388.07	1104.8	335.49	271.67	1341.6	468.03	291.49	1336.8	174.57	348.79	1622.7	317.92	345.33	935.32	426.07	351.76	915.59	218.76	137.48	968.9	378.83	130.03	972.37	305.57	294.87	830.12	524.58	213.6	835.22	137.58	249.01	980.89	487.12	229.42	967.94	156.54	108.27	922.19	338.03	388.29	638.63	511.97	468.81	589.99	472.27	409.88	552.38	492.49	442.4	674.49	488.53	455.1	490.78	476.47	447.7	475.33	333.88	403.68	279.24	462.55	489.09	209.62	450.46	421.15	208.34	454.05	476.97	277.35	465.68	451.57	112.37	444.08	467.48	132.61	361.18	397.13	94.648	383.42	415.46	66.632	354.41	400.13	60.536	416.15	557.06	62.284	471.32	597.24	69.602	369.58	637.66	96.314	430.4	152	615.54	177.81	214.12	524.62	184.25	137.53	529.26	204.2	221.93	616.64	159.5	181.6	447.9	198.52	181.48	451.83	337.57	64.229	296.64	210.17	115.63	198.36	227.79	48.433	226.58	229.45	124.93	272.23	208.64	52.691	106.07	247.5	66.92	104.11	327.94	-10.196	73.661	282.1	-1.8071	47.446	315.59	-5.8076	45.715	254.02	159.59	34.191	221.63	183	44.541	331.52	243.19	56.984	283.24	208.42	1399.8	315.4	132.81	1149.2	316.15
313	1.3	393.58	1103.6	335.78	277.03	1340.4	468.21	297.21	1335.7	174.9	354.25	1621.6	318.32	351.11	934.18	426.21	357.15	914.26	218.79	143.06	967.68	379.36	135.46	971.17	306.12	301.02	828.94	524.75	218.5	834.6	137.73	254.77	979.8	487.4	234.6	966.7	156.82	113.82	920.95	338.61	394.31	637.43	511.81	474.32	588.69	471.22	415.66	551.12	492.31	448.05	673.25	487.48	460.82	489.63	475.81	452.29	473.81	332.96	412.9	277.24	462.04	499.77	209.24	449.87	431.78	206.62	453.42	486.33	276.78	465.16	464.27	110.94	443.39	479.54	131.54	360.5	409.97	92.057	382.86	428.83	64.451	353.82	413.78	57.975	415.56	570.86	62.849	470.26	610.63	71.216	368.46	650.69	98.683	429.23	156.1	615.34	177.97	217.7	524.07	184.38	141.15	529.14	204.42	226.03	616.04	159.63	184.66	447.46	198.63	184.46	451.45	337.69	66.121	297.01	210.28	116.78	198.35	227.81	49.81	227.1	229.5	126.66	272.14	208.69	53.024	106.49	247.54	67.292	104.45	327.96	-10.019	74.155	282.11	-1.7148	47.94	315.64	-5.732	46.16	254.07	159.63	34.121	221.65	183.11	44.49	331.5	243.35	56.739	283.22	213.89	1398.8	315.53	138.27	1148.1	316.16
314	1.3042	399.12	1102.3	336.09	282.4	1339.3	468.42	302.92	1334.5	175.25	359.7	1620.6	318.72	356.91	933	426.37	362.56	912.9	218.82	148.67	966.42	379.89	140.91	969.94	306.68	307.16	827.67	524.91	223.43	833.96	137.91	260.55	978.64	487.71	239.81	965.44	157.1	119.4	919.67	339.19	400.37	636.21	511.68	479.85	587.36	470.2	421.47	549.84	492.15	453.73	671.98	486.46	466.53	488.44	475.17	456.89	472.26	332.05	421.82	275.3	461.5	510.01	208.82	449.23	442.02	204.97	452.75	495.35	276.16	464.61	476.44	109.58	442.64	491.08	130.53	359.77	422.27	89.627	382.25	441.61	62.421	353.16	426.85	55.581	414.91	584.04	63.371	469.13	623.37	72.754	367.26	663.1	100.91	427.96	160.32	615.06	178.12	221.44	523.47	184.52	144.92	528.96	204.62	230.25	615.39	159.76	187.9	446.96	198.75	187.62	451.03	337.82	68.146	297.39	210.36	118.02	198.33	227.83	51.282	227.63	229.53	128.51	272.03	208.74	53.381	106.95	247.57	67.682	104.81	327.96	-9.83	74.702	282.11	-1.6191	48.493	315.68	-5.6507	46.648	254.1	159.68	34.046	221.67	183.22	44.438	331.47	243.51	56.488	283.21	219.36	1397.8	315.68	143.74	1147	316.21
315	1.3083	404.68	1100.9	336.41	287.8	1338.1	468.65	308.62	1333.3	175.62	365.16	1619.5	319.14	362.75	931.75	426.55	367.99	911.5	218.84	154.31	965.14	380.44	146.4	968.69	307.25	313.3	826.31	525.07	228.4	833.29	138.11	266.35	977.44	488.06	245.04	964.14	157.38	125	918.38	339.76	406.45	634.95	511.57	485.41	586.02	469.2	427.3	548.53	491.98	459.43	670.68	485.47	472.24	487.21	474.55	461.52	470.68	331.16	430.43	273.42	460.92	519.8	208.37	448.55	451.82	203.38	452.03	504.04	275.5	464.03	488.05	108.28	441.83	502.07	129.55	358.98	434	87.351	381.59	453.76	60.528	352.44	439.31	53.346	414.2	596.57	63.825	467.91	635.43	74.179	365.97	674.88	102.96	426.6	164.66	614.72	178.26	225.33	522.83	184.65	148.84	528.7	204.83	234.6	614.71	159.88	191.33	446.42	198.87	190.97	450.57	337.95	70.307	297.79	210.42	119.33	198.31	227.84	52.85	228.18	229.55	130.47	271.91	208.79	53.764	107.44	247.57	68.092	105.22	327.95	-9.6237	75.311	282.08	-1.5177	49.112	315.71	-5.5617	47.188	254.12	159.73	33.965	221.69	183.33	44.386	331.44	243.67	56.232	283.19	224.83	1396.7	315.87	149.22	1145.9	316.28
